<svg width="500" height="500" viewBox="0 0 500 500" fill="none" xmlns="http://www.w3.org/2000/svg">
<mask id="path-1-inside-1_54_2" fill="white">
<path d="M255.5 12.8861L435 116.507C438.094 118.294 440 121.595 440 125.168V332.408C440 335.981 438.094 339.283 435 341.069L322.272 406.144V471.682C322.272 479.38 313.939 484.191 307.273 480.343L250.5 447.576L66.0005 341.069C62.9062 339.283 61 335.981 61 332.408V125.168C61 121.595 62.9062 118.294 66.0005 116.507L245.5 12.8861C248.594 11.1002 252.406 11.1001 255.5 12.8861Z"/>
</mask>
<path d="M250.5 447.576H249.5V449.308L251 448.442L250.5 447.576ZM255.5 96.9007L255.999 96.0347L255.999 96.0347L255.5 96.9007ZM362.232 158.515L362.731 157.649L362.731 157.649L362.232 158.515ZM138.768 158.515L139.268 159.381L139.268 159.381L138.768 158.515ZM245.5 96.9007L246 97.7668L246 97.7668L245.5 96.9007ZM307.303 195.35L306.806 194.482L306.806 194.482L307.303 195.35ZM254.973 225.31L255.47 226.178L255.47 226.178L254.973 225.31ZM362.232 299.061L361.732 298.195L361.732 298.195L362.232 299.061ZM249.942 234.031L248.942 234.035L248.942 234.036L249.942 234.031ZM138.768 299.061L139.268 298.195L139.268 298.195L138.768 299.061ZM322.272 406.144L322.771 407.01L323.272 406.721V406.144H322.272ZM255 97.7668L361.732 159.381L362.731 157.649L255.999 96.0347L255 97.7668ZM366.232 167.175V290.401H368.232V167.175H366.232ZM134.768 290.401V167.175H132.768V290.401H134.768ZM139.268 159.381L246 97.7668L245.001 96.0347L138.269 157.649L139.268 159.381ZM306.806 194.482L254.476 224.442L255.47 226.178L307.8 196.218L306.806 194.482ZM361.732 298.195L321.772 321.263L322.771 322.995L362.731 299.927L361.732 298.195ZM323.272 322.129V204.029H321.272V322.129H323.272ZM248.942 234.036L249.5 363.566L251.5 363.557L250.942 234.027L248.942 234.036ZM251 362.695L139.268 298.195L138.269 299.927L250 364.428L251 362.695ZM249.5 363.561V447.576H251.5V363.561H249.5ZM321.772 321.263L250 362.695L251 364.428L322.771 322.995L321.772 321.263ZM323.272 406.144V322.129H321.272V406.144H323.272ZM251 448.442L322.771 407.01L321.772 405.278L250 446.71L251 448.442ZM254.476 224.442C251.039 226.41 248.925 230.074 248.942 234.035L250.942 234.027C250.928 230.786 252.657 227.788 255.47 226.178L254.476 224.442ZM132.768 290.401C132.768 294.331 134.865 297.963 138.269 299.927L139.268 298.195C136.484 296.588 134.768 293.616 134.768 290.401H132.768ZM366.232 290.401C366.232 293.616 364.516 296.588 361.732 298.195L362.731 299.927C366.135 297.963 368.232 294.331 368.232 290.401H366.232ZM361.732 159.381C364.516 160.988 366.232 163.96 366.232 167.175H368.232C368.232 163.245 366.135 159.614 362.731 157.649L361.732 159.381ZM255.999 96.0347C252.596 94.0701 248.404 94.0701 245.001 96.0347L246 97.7668C248.785 96.1594 252.215 96.1594 255 97.7668L255.999 96.0347ZM307.8 196.218C313.8 192.783 321.272 197.115 321.272 204.029H323.272C323.272 195.579 314.139 190.284 306.806 194.482L307.8 196.218ZM134.768 167.175C134.768 163.96 136.484 160.988 139.268 159.381L138.269 157.649C134.865 159.614 132.768 163.245 132.768 167.175H134.768ZM255.5 12.8861L254.5 14.6182L254.5 14.6182L255.5 12.8861ZM435 116.507L434 118.239L434 118.239L435 116.507ZM250.5 447.576L249.5 449.308L249.5 449.308L250.5 447.576ZM66.0005 341.069L67.0004 339.337L67.0004 339.337L66.0005 341.069ZM66.0005 116.507L67.0004 118.239L67.0004 118.239L66.0005 116.507ZM245.5 12.8861L246.5 14.6182L246.5 14.6182L245.5 12.8861ZM307.273 480.343L306.273 482.075L306.273 482.075L307.273 480.343ZM322.272 406.144L321.272 404.412L320.272 404.989V406.144H322.272ZM435 341.069L434 339.337L434 339.337L435 341.069ZM254.5 14.6182L434 118.239L435.999 114.775L256.499 11.154L254.5 14.6182ZM438 125.168V332.408H442V125.168H438ZM251.5 445.844L67.0004 339.337L65.0006 342.801L249.5 449.308L251.5 445.844ZM63 332.408V125.168H59V332.408H63ZM67.0004 118.239L246.5 14.6182L244.501 11.154L65.0006 114.775L67.0004 118.239ZM249.5 449.308L306.273 482.075L308.272 478.611L251.5 445.844L249.5 449.308ZM324.272 471.682V406.144H320.272V471.682H324.272ZM434 339.337L321.272 404.412L323.271 407.876L435.999 342.801L434 339.337ZM306.273 482.075C314.273 486.693 324.272 480.919 324.272 471.682H320.272C320.272 477.84 313.606 481.689 308.272 478.611L306.273 482.075ZM67.0004 339.337C64.525 337.908 63 335.267 63 332.408H59C59 336.696 61.2874 340.657 65.0006 342.801L67.0004 339.337ZM438 332.408C438 335.267 436.475 337.908 434 339.337L435.999 342.801C439.713 340.657 442 336.696 442 332.408H438ZM434 118.239C436.475 119.668 438 122.31 438 125.168H442C442 120.88 439.713 116.919 435.999 114.775L434 118.239ZM63 125.168C63 122.31 64.525 119.668 67.0004 118.239L65.0006 114.775C61.2874 116.919 59 120.88 59 125.168H63ZM256.499 11.154C252.787 9.01085 248.213 9.01085 244.501 11.154L246.5 14.6182C248.975 13.1894 252.025 13.1894 254.5 14.6182L256.499 11.154Z" fill="#0D2D43" mask="url(#path-1-inside-1_54_2)"/>
</svg>
