<svg width="500" height="500" viewBox="0 0 500 500" fill="none" xmlns="http://www.w3.org/2000/svg">
<g clip-path="url(#clip0_15_3)">
<g filter="url(#filter0_d_15_3)">
<path d="M457.6 388.4C469.2 396 475.6 403.4 476.8 410.6C478 417.8 474.6 427.2 466.6 438.8C461 446.8 455.8 452.2 451 455C446.2 457.8 441 458.4 435.4 456.8C430.2 455.6 423.8 452.6 416.2 447.8L361 410.6C343.8 426.6 324 439.4 301.6 449C279.6 458.2 256.2 462.8 231.4 462.8C202.6 462.8 175.6 457.4 150.4 446.6C125.6 435.4 103.6 420.2 84.4 401C65.2 381.4 50.2 359 39.4 333.8C28.6 308.2 23.2 280.8 23.2 251.6C23.2 221.6 28.4 193.6 38.8 167.6C49.6 141.2 64.2 118.2 82.6 98.6C101.4 78.6 123 63 147.4 51.8C172.2 40.6 198.6 35 226.6 35C255.4 35 282.2 40.6 307 51.8C332.2 62.6 354.2 77.8 373 97.4C392.2 116.6 407 139.2 417.4 165.2C428.2 191.2 433.6 219.2 433.6 249.2C433.6 268 431.2 286.2 426.4 303.8C422 321.4 415.4 338 406.6 353.6L457.6 388.4ZM228.4 389.6C246.8 389.6 264 386 280 378.8C296 371.6 310 361.6 322 348.8C334.4 336 344 321.2 350.8 304.4C357.6 287.2 361 268.8 361 249.2C361 229.6 357.4 211.4 350.2 194.6C343.4 177.4 333.8 162.4 321.4 149.6C309.4 136.4 295.4 126.2 279.4 119C263.8 111.8 247 108.2 229 108.2C210.6 108.2 193.4 111.8 177.4 119C161.4 126.2 147.2 136.4 134.8 149.6C122.8 162.4 113.4 177.4 106.6 194.6C99.8 211.4 96.4 229.6 96.4 249.2C96.4 268.8 99.8 287.2 106.6 304.4C113.8 321.2 123.4 336 135.4 348.8C147.4 361.6 161.4 371.6 177.4 378.8C193.4 386 210.4 389.6 228.4 389.6Z" fill="url(#paint0_linear_15_3)"/>
</g>
</g>
<defs>
<filter id="filter0_d_15_3" x="23.2" y="35" width="460.4" height="432.8" filterUnits="userSpaceOnUse" color-interpolation-filters="sRGB">
<feFlood flood-opacity="0" result="BackgroundImageFix"/>
<feColorMatrix in="SourceAlpha" type="matrix" values="0 0 0 0 0 0 0 0 0 0 0 0 0 0 0 0 0 0 127 0" result="hardAlpha"/>
<feOffset dx="5" dy="5"/>
<feComposite in2="hardAlpha" operator="out"/>
<feColorMatrix type="matrix" values="0 0 0 0 0.0117647 0 0 0 0 0.0705882 0 0 0 0 0.137255 0 0 0 0.5 0"/>
<feBlend mode="normal" in2="BackgroundImageFix" result="effect1_dropShadow_15_3"/>
<feBlend mode="normal" in="SourceGraphic" in2="effect1_dropShadow_15_3" result="shape"/>
</filter>
<linearGradient id="paint0_linear_15_3" x1="250.5" y1="-132" x2="250.5" y2="594" gradientUnits="userSpaceOnUse">
<stop stop-color="#FF79BE"/>
<stop offset="1" stop-color="#89DDFF"/>
</linearGradient>
<clipPath id="clip0_15_3">
<rect width="500" height="500" fill="white"/>
</clipPath>
</defs>
</svg>
